<svg width="59" height="58" xmlns="http://www.w3.org/2000/svg"><path d="M15.205 53.942C1.43 45.989-3.29 28.375 4.663 14.6 12.616.825 30.23-3.894 44.005 4.058 57.78 12.011 62.499 29.625 54.546 43.4 46.593 57.175 28.98 61.894 15.205 53.942zm7.008-25.31-7.493 3.793c-1.388.665-2.278 1.54-2.673 2.624-.394 1.085-.254 2.246.42 3.484.708 1.18 1.664 1.83 2.87 1.946 1.206.118 2.449-.264 3.73-1.146l7.5-5.087-.729 8.997c-.123 1.55.168 2.817.873 3.803.704.985 1.79 1.477 3.257 1.476 1.41-.036 2.462-.489 3.158-1.36.697-.872.986-2.075.868-3.609l-.461-8.393 6.895 4.467c1.298.827 2.528 1.17 3.689 1.03 1.161-.14 2.093-.817 2.794-2.033.669-1.157.782-2.289.339-3.393-.443-1.105-1.363-1.983-2.761-2.636l-7.377-3.69 7.51-3.758c1.42-.723 2.342-1.619 2.765-2.686.424-1.068.298-2.22-.376-3.459-.674-1.238-1.637-1.91-2.888-2.015-1.252-.105-2.517.283-3.798 1.165l-7.37 5.046.685-8.906c.123-1.55-.174-2.84-.89-3.871-.718-1.031-1.752-1.513-3.103-1.444-1.376-.023-2.435.408-3.177 1.291-.742.884-1.07 2.122-.986 3.714l.425 8.453-6.86-4.527c-1.264-.885-2.485-1.242-3.663-1.074-1.178.17-2.1.833-2.77 1.99-.701 1.216-.822 2.361-.363 3.437.46 1.075 1.372 1.969 2.736 2.68l7.224 3.69z" fill="#D21FAA" fill-rule="evenodd"/></svg>